{
	"asset":{
		"generator":"Khronos glTF Blender I/O v4.0.44",
		"version":"2.0"
	},
	"scene":0,
	"scenes":[
		{
			"name":"Scene",
			"nodes":[
				8,
				9,
				10,
				11,
				12
			]
		}
	],
	"nodes":[
		{
			"name":"Default Ambient Light",
			"translation":[
				0,
				0.9999999403953552,
				0
			]
		},
		{
			"mesh":0,
			"name":"Merged Geometry 28",
			"scale":[
				1.906379222869873,
				1.906379222869873,
				1.906379222869873
			],
			"translation":[
				-4.601035118103027,
				52.78909683227539,
				34.92033004760742
			]
		},
		{
			"mesh":1,
			"name":"Merged Geometry 29",
			"rotation":[
				0,
				0.04361939802765846,
				0,
				0.9990482330322266
			],
			"scale":[
				1.906379222869873,
				1.906379222869873,
				1.906379222869873
			],
			"translation":[
				176.0406951904297,
				67.06236267089844,
				-18.1079044342041
			]
		},
		{
			"mesh":2,
			"name":"Merged Geometry 30",
			"rotation":[
				0,
				-0.9950759410858154,
				0,
				0.09911524504423141
			],
			"scale":[
				1.9063791036605835,
				1.906379222869873,
				1.9063791036605835
			],
			"translation":[
				-166.7466278076172,
				67.06236267089844,
				-15.490564346313477
			]
		},
		{
			"mesh":3,
			"name":"Merged Geometry 31",
			"rotation":[
				0,
				-0.6985623836517334,
				0,
				0.7155491709709167
			],
			"scale":[
				1.9063793420791626,
				1.906379222869873,
				1.9063793420791626
			],
			"translation":[
				-14.151334762573242,
				67.06236267089844,
				178.52439880371094
			]
		},
		{
			"mesh":4,
			"name":"Merged Geometry 31.001",
			"rotation":[
				0,
				0.6755902171134949,
				0,
				0.7372773289680481
			],
			"scale":[
				1.906379222869873,
				1.906379222869873,
				1.906379222869873
			],
			"translation":[
				33.19755554199219,
				67.06236267089844,
				-176.46542358398438
			]
		},
		{
			"children":[
				1,
				2,
				3,
				4,
				5
			],
			"name":"Tables and Chairs"
		},
		{
			"children":[
				0,
				6
			],
			"name":"Scene 1"
		},
		{
			"children":[
				7
			],
			"name":"Node_0",
			"scale":[
				0.02357093058526516,
				0.02357093058526516,
				0.02357093058526516
			]
		},
		{
			"mesh":5,
			"name":"Cube",
			"scale":[
				7.721780300140381,
				0.06039945036172867,
				7.721780300140381
			]
		},
		{
			"mesh":6,
			"name":"Cube.001",
			"rotation":[
				0.7071068286895752,
				0,
				0,
				0.7071068286895752
			],
			"scale":[
				7.721780300140381,
				0.06039945036172867,
				7.721780300140381
			],
			"translation":[
				0,
				7.6700944900512695,
				-7.742866039276123
			]
		},
		{
			"mesh":7,
			"name":"Cube.002",
			"rotation":[
				0.7071068286895752,
				0,
				0,
				0.7071068286895752
			],
			"scale":[
				7.721780300140381,
				0.06039945036172867,
				7.721780300140381
			],
			"translation":[
				0,
				7.6700944900512695,
				7.642251491546631
			]
		},
		{
			"mesh":8,
			"name":"Cube.003",
			"rotation":[
				0.5,
				-0.5,
				0.4999999403953552,
				0.5000000596046448
			],
			"scale":[
				7.721780300140381,
				0.06039945036172867,
				7.721780300140381
			],
			"translation":[
				7.76658821105957,
				7.6700944900512695,
				-0.07699812203645706
			]
		}
	],
	"materials":[
		{
			"doubleSided":true,
			"name":"Material.001",
			"pbrMetallicRoughness":{
				"baseColorFactor":[
					0,
					0.035933636128902435,
					0.8000937700271606,
					1
				],
				"metallicFactor":0.7981651425361633,
				"roughnessFactor":0.5
			}
		},
		{
			"doubleSided":true,
			"name":"Material.002",
			"pbrMetallicRoughness":{}
		},
		{
			"doubleSided":true,
			"name":"Material",
			"pbrMetallicRoughness":{
				"baseColorTexture":{
					"index":0
				},
				"metallicFactor":0,
				"roughnessFactor":0.5
			}
		}
	],
	"meshes":[
		{
			"name":"Mesh_4",
			"primitives":[
				{
					"attributes":{
						"POSITION":0,
						"NORMAL":1
					},
					"indices":2,
					"material":0
				}
			]
		},
		{
			"name":"Mesh_3",
			"primitives":[
				{
					"attributes":{
						"POSITION":3,
						"NORMAL":4
					},
					"indices":5,
					"material":1
				}
			]
		},
		{
			"name":"Mesh_1",
			"primitives":[
				{
					"attributes":{
						"POSITION":6,
						"NORMAL":7
					},
					"indices":5,
					"material":1
				}
			]
		},
		{
			"name":"Mesh_0",
			"primitives":[
				{
					"attributes":{
						"POSITION":8,
						"NORMAL":9
					},
					"indices":5,
					"material":1
				}
			]
		},
		{
			"name":"Mesh_2",
			"primitives":[
				{
					"attributes":{
						"POSITION":10,
						"NORMAL":11
					},
					"indices":5,
					"material":1
				}
			]
		},
		{
			"name":"Cube",
			"primitives":[
				{
					"attributes":{
						"POSITION":12,
						"NORMAL":13,
						"TEXCOORD_0":14
					},
					"indices":15,
					"material":2
				}
			]
		},
		{
			"name":"Cube.001",
			"primitives":[
				{
					"attributes":{
						"POSITION":16,
						"NORMAL":17,
						"TEXCOORD_0":18
					},
					"indices":15,
					"material":2
				}
			]
		},
		{
			"name":"Cube.002",
			"primitives":[
				{
					"attributes":{
						"POSITION":19,
						"NORMAL":20,
						"TEXCOORD_0":21
					},
					"indices":15,
					"material":2
				}
			]
		},
		{
			"name":"Cube.003",
			"primitives":[
				{
					"attributes":{
						"POSITION":22,
						"NORMAL":23,
						"TEXCOORD_0":24
					},
					"indices":15,
					"material":2
				}
			]
		}
	],
	"textures":[
		{
			"sampler":0,
			"source":0
		}
	],
	"images":[
		{
			"mimeType":"image/jpeg",
			"name":"texturewall",
			"uri":"texturewall.jpg"
		}
	],
	"accessors":[
		{
			"bufferView":0,
			"componentType":5126,
			"count":300,
			"max":[
				51.5175666809082,
				28.03227424621582,
				51.5175666809082
			],
			"min":[
				-51.5175666809082,
				-28.03227424621582,
				-51.5175666809082
			],
			"type":"VEC3"
		},
		{
			"bufferView":1,
			"componentType":5126,
			"count":300,
			"type":"VEC3"
		},
		{
			"bufferView":2,
			"componentType":5123,
			"count":360,
			"type":"SCALAR"
		},
		{
			"bufferView":3,
			"componentType":5126,
			"count":288,
			"max":[
				16.71976089477539,
				34.6148567199707,
				20.241735458374023
			],
			"min":[
				-24.452909469604492,
				-34.6148567199707,
				-20.241735458374023
			],
			"type":"VEC3"
		},
		{
			"bufferView":4,
			"componentType":5126,
			"count":288,
			"type":"VEC3"
		},
		{
			"bufferView":5,
			"componentType":5123,
			"count":432,
			"type":"SCALAR"
		},
		{
			"bufferView":6,
			"componentType":5126,
			"count":288,
			"max":[
				16.71976089477539,
				34.6148567199707,
				20.241735458374023
			],
			"min":[
				-24.452909469604492,
				-34.6148567199707,
				-20.241735458374023
			],
			"type":"VEC3"
		},
		{
			"bufferView":7,
			"componentType":5126,
			"count":288,
			"type":"VEC3"
		},
		{
			"bufferView":8,
			"componentType":5126,
			"count":288,
			"max":[
				16.71976089477539,
				34.6148567199707,
				20.241735458374023
			],
			"min":[
				-24.452909469604492,
				-34.6148567199707,
				-20.241735458374023
			],
			"type":"VEC3"
		},
		{
			"bufferView":9,
			"componentType":5126,
			"count":288,
			"type":"VEC3"
		},
		{
			"bufferView":10,
			"componentType":5126,
			"count":288,
			"max":[
				16.71976089477539,
				34.6148567199707,
				20.241735458374023
			],
			"min":[
				-24.452909469604492,
				-34.6148567199707,
				-20.241735458374023
			],
			"type":"VEC3"
		},
		{
			"bufferView":11,
			"componentType":5126,
			"count":288,
			"type":"VEC3"
		},
		{
			"bufferView":12,
			"componentType":5126,
			"count":24,
			"max":[
				1,
				1,
				1
			],
			"min":[
				-1,
				-1,
				-1
			],
			"type":"VEC3"
		},
		{
			"bufferView":13,
			"componentType":5126,
			"count":24,
			"type":"VEC3"
		},
		{
			"bufferView":14,
			"componentType":5126,
			"count":24,
			"type":"VEC2"
		},
		{
			"bufferView":15,
			"componentType":5123,
			"count":36,
			"type":"SCALAR"
		},
		{
			"bufferView":16,
			"componentType":5126,
			"count":24,
			"max":[
				1,
				1,
				1
			],
			"min":[
				-1,
				-1,
				-1
			],
			"type":"VEC3"
		},
		{
			"bufferView":17,
			"componentType":5126,
			"count":24,
			"type":"VEC3"
		},
		{
			"bufferView":18,
			"componentType":5126,
			"count":24,
			"type":"VEC2"
		},
		{
			"bufferView":19,
			"componentType":5126,
			"count":24,
			"max":[
				1,
				1,
				1
			],
			"min":[
				-1,
				-1,
				-1
			],
			"type":"VEC3"
		},
		{
			"bufferView":20,
			"componentType":5126,
			"count":24,
			"type":"VEC3"
		},
		{
			"bufferView":21,
			"componentType":5126,
			"count":24,
			"type":"VEC2"
		},
		{
			"bufferView":22,
			"componentType":5126,
			"count":24,
			"max":[
				1,
				1,
				1
			],
			"min":[
				-1,
				-1,
				-1
			],
			"type":"VEC3"
		},
		{
			"bufferView":23,
			"componentType":5126,
			"count":24,
			"type":"VEC3"
		},
		{
			"bufferView":24,
			"componentType":5126,
			"count":24,
			"type":"VEC2"
		}
	],
	"bufferViews":[
		{
			"buffer":0,
			"byteLength":3600,
			"byteOffset":0,
			"target":34962
		},
		{
			"buffer":0,
			"byteLength":3600,
			"byteOffset":3600,
			"target":34962
		},
		{
			"buffer":0,
			"byteLength":720,
			"byteOffset":7200,
			"target":34963
		},
		{
			"buffer":0,
			"byteLength":3456,
			"byteOffset":7920,
			"target":34962
		},
		{
			"buffer":0,
			"byteLength":3456,
			"byteOffset":11376,
			"target":34962
		},
		{
			"buffer":0,
			"byteLength":864,
			"byteOffset":14832,
			"target":34963
		},
		{
			"buffer":0,
			"byteLength":3456,
			"byteOffset":15696,
			"target":34962
		},
		{
			"buffer":0,
			"byteLength":3456,
			"byteOffset":19152,
			"target":34962
		},
		{
			"buffer":0,
			"byteLength":3456,
			"byteOffset":22608,
			"target":34962
		},
		{
			"buffer":0,
			"byteLength":3456,
			"byteOffset":26064,
			"target":34962
		},
		{
			"buffer":0,
			"byteLength":3456,
			"byteOffset":29520,
			"target":34962
		},
		{
			"buffer":0,
			"byteLength":3456,
			"byteOffset":32976,
			"target":34962
		},
		{
			"buffer":0,
			"byteLength":288,
			"byteOffset":36432,
			"target":34962
		},
		{
			"buffer":0,
			"byteLength":288,
			"byteOffset":36720,
			"target":34962
		},
		{
			"buffer":0,
			"byteLength":192,
			"byteOffset":37008,
			"target":34962
		},
		{
			"buffer":0,
			"byteLength":72,
			"byteOffset":37200,
			"target":34963
		},
		{
			"buffer":0,
			"byteLength":288,
			"byteOffset":37272,
			"target":34962
		},
		{
			"buffer":0,
			"byteLength":288,
			"byteOffset":37560,
			"target":34962
		},
		{
			"buffer":0,
			"byteLength":192,
			"byteOffset":37848,
			"target":34962
		},
		{
			"buffer":0,
			"byteLength":288,
			"byteOffset":38040,
			"target":34962
		},
		{
			"buffer":0,
			"byteLength":288,
			"byteOffset":38328,
			"target":34962
		},
		{
			"buffer":0,
			"byteLength":192,
			"byteOffset":38616,
			"target":34962
		},
		{
			"buffer":0,
			"byteLength":288,
			"byteOffset":38808,
			"target":34962
		},
		{
			"buffer":0,
			"byteLength":288,
			"byteOffset":39096,
			"target":34962
		},
		{
			"buffer":0,
			"byteLength":192,
			"byteOffset":39384,
			"target":34962
		}
	],
	"samplers":[
		{
			"magFilter":9729,
			"minFilter":9987
		}
	],
	"buffers":[
		{
			"byteLength":39576,
			"uri":"scene.bin"
		}
	]
}
